<svg xmlns="http://www.w3.org/2000/svg" xmlns:xlink="http://www.w3.org/1999/xlink" fill="none" version="1.1" width="40" height="40" viewBox="0 0 40 40"><defs><clipPath id="master_svg0_3701_18511"><rect x="0" y="0" width="40" height="40" rx="0"/></clipPath></defs><g clip-path="url(#master_svg0_3701_18511)"><g style="opacity:0.20000000298023224;"><path d="M35.026298828125,13.425003051757812L35.026298828125,26.57500305175781L28.768798828125,22.925003051757812L28.768798828125,17.07500305175781L35.026298828125,13.425003051757812Z" fill="#FFFFFF" fill-opacity="1"/></g><g><path d="M25.02001953125,6.25C27.78141953125,6.25,30.02001953125,8.488579999999999,30.02001953125,11.25L30.02001953125,13.45L33.77001953125,11.26625C35.35281953125,10.34289,37.35831953125,11.37973,37.52001953125,13.205L37.53001953125,13.425L37.53001953125,26.5725C37.53051953125,28.4056,35.62341953125,29.6159,33.96501953125,28.835L33.77001953125,28.7325L30.02001953125,26.5462L30.02001953125,28.75C30.02001953125,31.4143,27.93091953125,33.6105,25.27001953125,33.743700000000004L25.02001953125,33.75L7.52001953125,33.75C4.75859953125,33.75,2.52001953125,31.5114,2.52001953125,28.75L2.52001953125,11.25C2.520019233227,8.488579999999999,4.75859953125,6.25,7.52001953125,6.25L25.02001953125,6.25ZM25.02001953125,8.75L7.52001953125,8.75C6.1393095312499995,8.75,5.02001953125,9.86929,5.02001953125,11.25L5.02001953125,28.75C5.02001953125,30.1307,6.1393095312499995,31.25,7.52001953125,31.25L25.02001953125,31.25C26.40071953125,31.25,27.52001953125,30.1307,27.52001953125,28.75L27.52001953125,11.25C27.52001953125,9.86929,26.40071953125,8.75,25.02001953125,8.75ZM35.02621953125,13.425L30.02001953125,16.345L30.02001953125,23.6525L35.02621953125,26.5725L35.02621953125,13.425Z" fill="#FFFFFF" fill-opacity="1"/></g><g><path d="M20.28376953125,21.118751889648436L14.32876953125,24.096251889648435C13.49792153125,24.511431889648435,12.52051544225,23.907561889648438,12.52001953125,22.978751889648436L12.52001953125,17.023751889648437C12.52051425025,16.094947889648438,13.49792153125,15.491075889648437,14.32876953125,15.906253889648438L20.28376953125,18.883751889648437C20.70665953125,19.09570188964844,20.97367953125,19.52822188964844,20.97367953125,20.001251889648437C20.97367953125,20.474291889648438,20.70665953125,20.906801889648438,20.28376953125,21.118751889648436Z" fill="#6BBD5B" fill-opacity="1"/></g></g></svg>